<?xml version="1.0" encoding="UTF-8" standalone="no"?>
<!-- Created with Inkscape (http://www.inkscape.org/) -->

<svg
   width="115.1655mm"
   height="202.48595mm"
   viewBox="0 0 115.1655 202.48595"
   version="1.1"
   id="svg1"
   inkscape:version="1.4 (e7c3feb1, 2024-10-09)"
   sodipodi:docname="train_off_tracks.svg"
   inkscape:export-filename="train_off_tracks.png"
   inkscape:export-xdpi="96"
   inkscape:export-ydpi="96"
   xmlns:inkscape="http://www.inkscape.org/namespaces/inkscape"
   xmlns:sodipodi="http://sodipodi.sourceforge.net/DTD/sodipodi-0.dtd"
   xmlns="http://www.w3.org/2000/svg"
   xmlns:svg="http://www.w3.org/2000/svg">
  <sodipodi:namedview
     id="namedview1"
     pagecolor="#505050"
     bordercolor="#ffffff"
     borderopacity="1"
     inkscape:showpageshadow="0"
     inkscape:pageopacity="0"
     inkscape:pagecheckerboard="1"
     inkscape:deskcolor="#505050"
     inkscape:document-units="mm"
     inkscape:zoom="0.78"
     inkscape:cx="246.79487"
     inkscape:cy="354.48718"
     inkscape:window-width="1888"
     inkscape:window-height="934"
     inkscape:window-x="0"
     inkscape:window-y="25"
     inkscape:window-maximized="0"
     inkscape:current-layer="layer1" />
  <defs
     id="defs1">
    <rect
       x="310.67459"
       y="664.81805"
       width="92.051727"
       height="103.55819"
       id="rect2" />
    <rect
       x="310.67459"
       y="664.81805"
       width="92.051727"
       height="103.55819"
       id="rect2-4" />
  </defs>
  <g
     inkscape:label="Layer 1"
     inkscape:groupmode="layer"
     id="layer1"
     transform="translate(-41.691245,-56.014695)">
    <g
       id="g6"
       transform="translate(-3.7313034,0.3392094)">
      <path
         style="fill:none;fill-rule:evenodd;stroke:#808080;stroke-width:10.2203;stroke-miterlimit:4.9;stroke-dasharray:none;stroke-opacity:1;paint-order:markers stroke fill"
         d="M 76.976411,206.15457 49.886753,254.78351 Z"
         id="path6-7-8-5"
         inkscape:transform-center-x="-11.813205"
         inkscape:transform-center-y="24.570402" />
      <path
         style="fill:none;fill-rule:evenodd;stroke:#000000;stroke-width:1.73623;stroke-miterlimit:4.9;stroke-dasharray:none;stroke-opacity:1;paint-order:markers stroke fill"
         d="M 76.196756,207.67034 48.971513,253.99365 Z"
         id="path6" />
    </g>
    <path
       style="fill:none;fill-rule:evenodd;stroke:#808080;stroke-width:10;stroke-miterlimit:4.9;stroke-dasharray:none;stroke-opacity:1;paint-order:markers stroke fill"
       d="m 117.77566,209.64387 27.22524,46.32331 z"
       id="path6-7-8"
       inkscape:transform-center-x="11.872329"
       inkscape:transform-center-y="23.405449" />
    <path
       style="fill:none;fill-rule:evenodd;stroke:#000000;stroke-width:1.73623;stroke-miterlimit:4.9;stroke-dasharray:none;stroke-opacity:1;paint-order:markers stroke fill"
       d="m 118.06061,210.46476 27.22524,46.32331 z"
       id="path6-7"
       inkscape:transform-center-x="11.872329"
       inkscape:transform-center-y="23.405449" />
    <path
       id="rect1-8"
       style="fill:#b3b3b3;fill-rule:evenodd;stroke-width:4.93615;stroke-miterlimit:4.9;paint-order:markers stroke fill"
       d="m 108.01249,56.503507 c 14.83881,2.578739 49.31418,12.228124 48.8394,35.586422 L 147.6891,196.8213 c -0.88101,10.06979 -8.36729,17.5836 -16.78542,16.84712 l -72.725999,-6.3627 c -8.418132,-0.7365 -14.485934,-9.43614 -13.604943,-19.50593 L 53.735547,83.068416 C 58.543829,61.372055 93.173685,53.924768 108.01249,56.503507 Z"
       sodipodi:nodetypes="zssssssz" />
    <rect
       style="fill:#666666;fill-opacity:1;fill-rule:evenodd;stroke:none;stroke-width:2.01871;stroke-miterlimit:4.9;stroke-dasharray:none;stroke-opacity:1;paint-order:markers stroke fill"
       id="rect3-4"
       width="103.51024"
       height="63.981167"
       x="60.770962"
       y="85.441315"
       ry="0"
       transform="rotate(5)" />
    <rect
       style="fill:#e9ddaf;fill-rule:evenodd;stroke:#999999;stroke-width:2.009;stroke-miterlimit:4.9;stroke-dasharray:none;paint-order:markers stroke fill"
       id="rect1"
       width="24.355352"
       height="55.137814"
       x="100.55001"
       y="91.335602"
       ry="7.1036448"
       transform="rotate(5)" />
    <rect
       style="fill:#c53a3a;fill-opacity:1;fill-rule:evenodd;stroke:none;stroke-width:1.36122;stroke-miterlimit:4.9;stroke-dasharray:none;stroke-opacity:1;paint-order:markers stroke fill"
       id="rect3"
       width="103.51024"
       height="29.091116"
       x="60.770962"
       y="157.05417"
       ry="0"
       transform="rotate(5)" />
    <rect
       style="fill:none;fill-rule:evenodd;stroke:#ffffff;stroke-width:1.28305;stroke-miterlimit:4.9;stroke-dasharray:none;stroke-opacity:1;paint-order:markers stroke fill"
       id="rect1-0"
       width="30.684887"
       height="106.11884"
       x="97.372627"
       y="86.697906"
       ry="13.67175"
       transform="rotate(5)" />
    <path
       id="rect1-1"
       style="fill:#e9ddaf;fill-rule:evenodd;stroke:#999999;stroke-width:1.7271;stroke-miterlimit:4.9;stroke-dasharray:none;paint-order:markers stroke fill"
       d="m 62.489221,97.491051 16.849076,1.474102 c 3.920443,0.342995 6.82703,3.857777 6.441913,7.873797 l -3.873173,40.38935 c -0.385123,4.01602 -3.790872,6.97854 -7.711315,6.63556 l -16.849077,-1.47412 c -3.920444,-0.34298 -6.82703,-3.85777 -6.441912,-7.87378 l 3.873173,-40.38936 c 0.385122,-4.01601 3.79087,-6.978543 7.711315,-6.635549 z"
       sodipodi:nodetypes="sssssssss" />
    <path
       id="rect1-1-6"
       style="fill:#e9ddaf;fill-rule:evenodd;stroke:#999999;stroke-width:1.7271;stroke-miterlimit:4.9;stroke-dasharray:none;paint-order:markers stroke fill"
       d="m 145.79146,104.77906 -16.84907,-1.47411 c -3.92044,-0.343 -7.3932,2.61368 -7.71132,6.63555 l -3.19921,40.44832 c -0.31814,4.02187 2.52148,7.5308 6.44192,7.8738 l 16.84908,1.4741 c 3.92044,0.34299 7.3932,-2.61367 7.7113,-6.63554 l 3.19921,-40.44833 c 0.31815,-4.02187 -2.52146,-7.5308 -6.44191,-7.87379 z"
       sodipodi:nodetypes="sssssssss" />
    <g
       id="g3"
       transform="rotate(5,105.84138,132.28831)"
       style="stroke-width:0.3;stroke-dasharray:none">
      <rect
         style="fill:#ffffff;fill-opacity:1;fill-rule:evenodd;stroke:#000000;stroke-width:0.3;stroke-miterlimit:4.9;stroke-opacity:1;paint-order:markers stroke fill;stroke-dasharray:none"
         id="rect1-4"
         width="59.873577"
         height="14.883827"
         x="71.462364"
         y="73.155266"
         ry="1.9175483" />
      <text
         xml:space="preserve"
         style="font-size:4.93889px;line-height:1;font-family:sans-serif;-inkscape-font-specification:sans-serif;text-align:center;writing-mode:lr-tb;direction:ltr;text-anchor:middle;fill:#000000;fill-opacity:1;fill-rule:evenodd;stroke:#000000;stroke-width:0.3;stroke-miterlimit:4.9;stroke-dasharray:none;stroke-opacity:1;paint-order:markers stroke fill"
         x="101.05256"
         y="80.418274"
         id="text1"><tspan
           sodipodi:role="line"
           id="tspan1"
           style="font-size:4.93889px;fill:#000000;fill-opacity:1;stroke-width:0.3;stroke-dasharray:none"
           x="101.05256"
           y="80.418274">WOMEN+ </tspan><tspan
           sodipodi:role="line"
           style="font-size:4.93889px;fill:#000000;fill-opacity:1;stroke-width:0.3;stroke-dasharray:none"
           x="101.05256"
           y="85.357162"
           id="tspan6">IN BIOINFORMATICS</tspan></text>
    </g>
    <g
       id="g2"
       transform="matrix(0.85286496,0.07461602,-0.07015354,0.8018586,36.887606,-5.7186375)">
      <ellipse
         style="fill:#ffffff;fill-opacity:1;fill-rule:evenodd;stroke:#000000;stroke-width:2.17224;stroke-miterlimit:4.9;stroke-opacity:1;paint-order:markers stroke fill"
         id="path2"
         cx="89.967125"
         cy="224.25983"
         rx="10.47311"
         ry="9.4583025" />
      <text
         xml:space="preserve"
         transform="matrix(0.31891055,0,0,0.26163757,-23.788331,44.28017)"
         id="text2"
         style="font-size:64px;line-height:1;font-family:sans-serif;-inkscape-font-specification:sans-serif;text-align:center;writing-mode:lr-tb;direction:ltr;white-space:pre;shape-inside:url(#rect2);display:inline;fill:#000000;fill-opacity:1;fill-rule:evenodd;stroke:#000000;stroke-width:5.64661;stroke-miterlimit:4.9;stroke-opacity:1;paint-order:markers stroke fill"><tspan
           x="334.8877"
           y="715.2075"
           id="tspan5"><tspan
             style="font-weight:bold;-inkscape-font-specification:'sans-serif Bold'"
             id="tspan2">T</tspan></tspan></text>
    </g>
    <circle
       style="fill:#ffff00;fill-opacity:1;fill-rule:evenodd;stroke:none;stroke-width:1.05587;stroke-miterlimit:4.9;stroke-opacity:1;paint-order:markers stroke fill"
       id="path2-9"
       cx="145.2843"
       cy="171.39549"
       r="4.8377728"
       transform="rotate(5)" />
    <circle
       style="fill:#ff0000;fill-opacity:1;fill-rule:evenodd;stroke:#ffffff;stroke-width:1.043;stroke-miterlimit:4.9;stroke-dasharray:none;stroke-opacity:1;paint-order:markers stroke fill"
       id="path3"
       cx="152.69243"
       cy="70.869095"
       r="5.2431664"
       transform="rotate(5)" />
    <circle
       style="fill:#ff0000;fill-opacity:1;fill-rule:evenodd;stroke:#ffffff;stroke-width:1.043;stroke-miterlimit:4.9;stroke-dasharray:none;stroke-opacity:1;paint-order:markers stroke fill"
       id="path3-0"
       cx="73.035789"
       cy="70.869095"
       r="5.2431664"
       transform="rotate(5)" />
    <ellipse
       style="fill:none;fill-opacity:1;fill-rule:evenodd;stroke:#ffffff;stroke-width:0.871841;stroke-miterlimit:4.9;stroke-opacity:1;paint-order:markers stroke fill"
       id="path2-9-3"
       cx="134.47311"
       cy="171.42165"
       rx="3.9601102"
       ry="4.0293727"
       transform="rotate(5)" />
    <path
       style="fill:#999999;fill-opacity:1;fill-rule:evenodd;stroke:#ffffff;stroke-width:1.043;stroke-miterlimit:4.9;stroke-dasharray:none;stroke-opacity:1;paint-order:markers stroke fill"
       d="m 142.35735,188.83669 2.34627,-26.8178 -6.06568,-0.53067 c -0.5011,2.93955 -0.41604,4.01659 -0.6113,6.98732 l -13.02828,-1.11232 c -0.16729,-1.26613 -0.64919,-1.64377 -1.29426,-2.07195 -0.73815,-0.48996 -1.79417,-0.46892 -2.64777,-0.23164 -2.9647,0.82413 -3.03175,3.96592 -0.5102,5.8315 0.71224,0.52694 1.80498,0.50479 2.64779,0.23165 0.86137,-0.27918 1.63438,-1.81574 1.63438,-1.81574 l 13.01643,1.24774 -0.80573,9.20956 -5.26232,-0.4604 0.5281,-6.03619 -2.82526,-0.24718 -0.69385,7.93092 8.08756,0.70756 -0.58153,6.64697"
       id="path4"
       sodipodi:nodetypes="cccccassaccccccccc" />
    <path
       style="fill:#999999;fill-opacity:1;fill-rule:evenodd;stroke:#ffffff;stroke-width:1.043;stroke-miterlimit:4.9;stroke-dasharray:none;stroke-opacity:1;paint-order:markers stroke fill"
       d="m 142.56039,186.51604 -1.7426,19.91789 -6.06565,-0.53069 c 0.017,-2.9819 0.28775,-4.02781 0.6113,-6.98731 l -13.02349,-1.16691 c -0.38466,1.21784 -0.77301,1.53654 -1.63438,1.8157 -0.8428,0.27317 -1.91564,0.26728 -2.64778,-0.23164 -2.33189,-1.58904 -1.54431,-4.62623 0.51019,-5.83149 0.76416,-0.44831 1.89241,-0.23132 2.64777,0.23165 0.69428,0.42553 1.29426,2.07194 1.29426,2.07194 l 13.03535,1.03152 0.80574,-9.20957 -5.26232,-0.46039 -0.52811,6.03619 -2.82525,-0.24717 0.69388,-7.93092 8.08756,0.70756"
       id="path4-8"
       sodipodi:nodetypes="cccccassacccccccc" />
    <circle
       style="fill:#ffff00;fill-opacity:1;fill-rule:evenodd;stroke:none;stroke-width:1.05587;stroke-miterlimit:4.9;stroke-opacity:1;paint-order:markers stroke fill"
       id="path2-9-0"
       cx="-80.481674"
       cy="171.25038"
       r="4.8377728"
       transform="matrix(-0.9961947,-0.08715574,-0.08715574,0.9961947,0,0)" />
    <ellipse
       style="fill:none;fill-opacity:1;fill-rule:evenodd;stroke:#ffffff;stroke-width:0.871841;stroke-miterlimit:4.9;stroke-opacity:1;paint-order:markers stroke fill"
       id="path2-9-3-3"
       cx="-91.292847"
       cy="171.42165"
       rx="3.9601102"
       ry="4.0293727"
       transform="matrix(-0.9961947,-0.08715574,-0.08715574,0.9961947,0,0)" />
    <g
       id="g5"
       transform="rotate(5,815.40897,54.839885)">
      <path
         style="fill:#999999;fill-opacity:1;fill-rule:evenodd;stroke:#ffffff;stroke-width:1.043;stroke-miterlimit:4.9;stroke-dasharray:none;stroke-opacity:1;paint-order:markers stroke fill"
         d="m 64.773256,246.98711 v -26.92024 h 6.08883 c 0.243,2.97204 0.0644,4.03757 0,7.01401 l 13.07565,0.0274 c 0.27705,-1.24673 0.78999,-1.58093 1.46991,-1.95125 0.77805,-0.42376 1.82822,-0.31078 2.65789,0 2.88158,1.07938 2.67455,4.21506 0,5.85377 -0.75544,0.46286 -1.8421,0.34557 -2.65789,0 -0.83376,-0.35318 -1.46991,-1.95126 -1.46991,-1.95126 l -13.07565,0.10852 v 9.24474 h 5.28242 v -6.05925 h 2.83604 v 7.96121 h -8.11846 v 6.67235"
         id="path4-0"
         sodipodi:nodetypes="cccccassaccccccccc" />
      <path
         style="fill:#999999;fill-opacity:1;fill-rule:evenodd;stroke:#ffffff;stroke-width:1.043;stroke-miterlimit:4.9;stroke-dasharray:none;stroke-opacity:1;paint-order:markers stroke fill"
         d="m 64.773256,244.65759 v 19.99397 h 6.08883 c 0.243,-2.97204 0.0644,-4.03757 0,-7.01401 l 13.07565,-0.0274 c 0.27705,1.24673 0.63615,1.59807 1.46991,1.95125 0.81579,0.34557 1.88506,0.4332 2.65789,0 2.46151,-1.37975 1.94164,-4.47402 0,-5.85377 -0.72219,-0.5132 -1.86504,-0.39538 -2.65789,0 -0.72873,0.3634 -1.46991,1.95126 -1.46991,1.95126 l -13.07565,-0.10852 v -9.24474 h 5.28242 v 6.05925 h 2.83604 v -7.96121 h -8.11846"
         id="path4-8-3"
         sodipodi:nodetypes="cccccassacccccccc" />
    </g>
    <path
       style="fill:none;fill-rule:evenodd;stroke:#000000;stroke-width:1.443;stroke-miterlimit:4.9;stroke-dasharray:none;stroke-opacity:1;paint-order:markers stroke fill"
       d="M 69.537926,217.43322 Z"
       id="path5" />
  </g>
</svg>
