<?xml version="1.0" encoding="UTF-8" standalone="no"?>
<!-- Created with Inkscape (http://www.inkscape.org/) -->

<svg
   width="235.4903mm"
   height="194.16507mm"
   viewBox="0 0 235.4903 194.16507"
   version="1.1"
   id="svg1"
   xml:space="preserve"
   inkscape:export-filename="eventFairy.png"
   inkscape:export-xdpi="96"
   inkscape:export-ydpi="96"
   inkscape:version="1.4 (e7c3feb1, 2024-10-09)"
   sodipodi:docname="eventFairy.svg"
   xmlns:inkscape="http://www.inkscape.org/namespaces/inkscape"
   xmlns:sodipodi="http://sodipodi.sourceforge.net/DTD/sodipodi-0.dtd"
   xmlns="http://www.w3.org/2000/svg"
   xmlns:svg="http://www.w3.org/2000/svg"><sodipodi:namedview
     id="namedview1"
     pagecolor="#ffffff"
     bordercolor="#ffffff"
     borderopacity="1"
     inkscape:showpageshadow="0"
     inkscape:pageopacity="0"
     inkscape:pagecheckerboard="1"
     inkscape:deskcolor="#505050"
     inkscape:document-units="mm"
     inkscape:zoom="0.44"
     inkscape:cx="222.72727"
     inkscape:cy="237.5"
     inkscape:window-width="1824"
     inkscape:window-height="934"
     inkscape:window-x="1950"
     inkscape:window-y="25"
     inkscape:window-maximized="0"
     inkscape:current-layer="layer1" /><defs
     id="defs1" /><g
     inkscape:label="Layer 1"
     inkscape:groupmode="layer"
     id="layer1"
     transform="translate(13.410629,-33.172612)"><path
       style="fill:#2861ef;fill-opacity:1;stroke:#2861ef;stroke-opacity:1"
       d="m 140.20394,226.86578 c -2.26564,-0.78326 -3.75639,-2.28453 -4.32492,-4.35544 -0.22661,-0.82545 -0.28678,-9.57284 -0.23066,-33.53433 l 0.0759,-32.41759 0.86799,-1.35256 c 1.75342,-2.73232 3.57578,-3.34315 9.58621,-3.21316 l 3.70187,0.0801 -4.3e-4,-1.47334 c -6.8e-4,-2.33959 0.6156,-3.98399 1.95622,-5.21973 2.08181,-1.91894 4.78293,-1.78699 6.73332,0.32892 1.25131,1.35752 1.46463,1.99683 1.48306,4.44455 l 0.0134,1.78457 18.71927,0.001 18.71927,0.001 0.001,-1.65364 c 0.002,-2.30679 0.4274,-3.59999 1.5549,-4.72748 1.52585,-1.52585 3.5771,-1.92305 5.45509,-1.0563 2.11378,0.97557 3.0427,2.67816 3.0427,5.57684 v 1.86058 h 4.08802 c 2.24841,0 4.68669,0.1284 5.41841,0.28532 1.8623,0.39939 3.76697,2.13777 4.50577,4.11239 0.54488,1.45632 0.54768,1.6542 0.47784,33.81015 l -0.0702,32.34526 -0.79942,1.29295 c -1.04156,1.68458 -2.67473,2.90947 -4.36161,3.27124 -0.93866,0.2013 -12.55832,0.28632 -38.30981,0.28031 -34.52198,-0.008 -37.05105,-0.0393 -38.30367,-0.4723 z m 77.17132,-3.29465 c 1.93815,-1.29477 1.82419,0.39037 1.82465,-26.98223 l 4.1e-4,-24.5401 h -40.34896 -40.34895 v 24.45673 c 0,16.68081 0.0897,24.69355 0.28221,25.20156 0.34006,0.89754 1.24255,1.91266 1.96675,2.2122 0.29104,0.12039 17.4482,0.22643 38.12701,0.23565 l 37.59785,0.0168 z m -69.70372,-7.02702 c -0.39838,-0.44021 -0.43788,-2.10055 -0.43788,-18.40594 0,-11.84817 0.0928,-18.09552 0.27389,-18.43385 0.2684,-0.50151 0.89642,-0.51177 31.32073,-0.51177 25.59547,0 31.09839,0.0621 31.34048,0.35382 0.20859,0.25134 0.29664,5.58832 0.30397,18.42612 0.009,16.56851 -0.0267,18.11321 -0.43454,18.56389 -0.42868,0.47368 -1.56431,0.49158 -31.18683,0.49158 -29.44627,0 -30.76039,-0.0204 -31.17982,-0.48385 z m 19.40587,-9.7026 v -7.27605 h -8.46667 -8.46667 v 7.27605 7.27604 h 8.46667 8.46667 z m 20.90208,0 v -7.27605 h -8.99583 -8.99584 v 7.27605 7.27604 h 8.99584 8.99583 z m 19.84375,0 v -7.27605 h -8.46667 -8.46666 v 7.27605 7.27604 h 8.46666 8.46667 z m -40.74583,-17.73427 v -7.00428 h -8.46667 -8.46667 l -1.3e-4,7.07761 -1.3e-4,7.0776 8.4668,-0.0733 8.4668,-0.0733 z m 20.90208,-0.008 v -6.99585 h -8.99583 -8.99584 v 7.0079 7.00789 l 8.7974,0.0697 c 4.83857,0.0383 8.88669,0.0329 8.99583,-0.0121 0.10914,-0.045 0.19844,-3.22989 0.19844,-7.0776 z m 19.84375,0.0156 v -7.01146 h -8.46667 -8.46666 v 7.01146 7.01146 h 8.46666 8.46667 z M 219.153,163.23929 c -0.0939,-6.22973 -0.17684,-6.56418 -1.88528,-7.60588 -0.74903,-0.45671 -1.35129,-0.51566 -5.27729,-0.51654 l -4.43178,-9.9e-4 v 2.29772 c 0,3.98353 -1.47172,5.91997 -4.65322,6.12255 -1.43271,0.0912 -1.8461,0.009 -2.81535,-0.55885 -1.75056,-1.02589 -2.40847,-2.42797 -2.5405,-5.41402 l -0.10821,-2.4474 h -18.62156 -18.62157 l -0.006,1.78594 c -0.008,2.25841 -0.3094,3.55834 -1.08882,4.69584 -0.87622,1.27875 -2.26735,1.98489 -3.91033,1.98489 -1.77693,0 -2.91515,-0.49901 -3.92065,-1.71885 -0.98125,-1.19043 -1.39264,-2.6763 -1.39264,-5.02995 v -1.75197 l -4.62648,0.0832 -4.62647,0.0832 -0.99592,0.99604 -0.99592,0.99605 -0.0805,5.81698 -0.0805,5.81697 h 40.3821 40.3821 z m -62.80422,-3.19156 c 0.79385,-0.79385 1.01677,-2.6918 0.89563,-7.62549 -0.0781,-3.1807 -0.15623,-3.71015 -0.6442,-4.36563 -0.76727,-1.03061 -1.99032,-1.13476 -2.87985,-0.24523 l -0.66587,0.66587 v 5.44801 c 0,5.43153 0.002,5.44998 0.64943,6.09744 0.81968,0.81968 1.84055,0.82934 2.64486,0.025 z m 47.52606,-0.14899 0.7734,-0.7734 v -5.15943 -5.15942 l -0.68498,-0.81406 c -0.80994,-0.96256 -1.84793,-1.07279 -2.69253,-0.28592 -0.79954,0.74488 -0.90249,1.63405 -0.80746,6.97383 l 0.0839,4.71586 0.74235,0.63797 c 0.97739,0.83994 1.64488,0.80498 2.58529,-0.13543 z M 17.560815,207.17185 c -1.893635,-1.25472 -2.774712,-4.50662 -2.517548,-9.29183 0.180701,-3.36239 0.729166,-5.79234 1.780575,-7.88876 l 0.754502,-1.50441 3.883152,-1.91328 c 4.41805,-2.17683 6.409727,-3.80826 9.159284,-7.50262 1.758061,-2.36216 4.30574,-7.40512 5.342471,-10.57506 0.700624,-2.14225 0.679791,-2.35219 -0.26148,-2.63508 -0.441882,-0.1328 -0.739439,0.14254 -1.64883,1.52572 -2.140975,3.25643 -6.028105,6.76461 -10.017024,9.04049 -4.683471,2.67215 -8.824263,3.72544 -16.0982669,4.09488 l -4.755391,0.24153 -2.99166205,2.05883 c -7.33303875,5.04652 -8.21311645,5.46295 -9.98272135,4.72356 -2.3155507,-0.9675 -2.2730867,-5.16549 0.099992,-9.88531 1.6562358,-3.29409 4.9690546,-7.22123 7.0393422,-8.34469 0.9836318,-0.53378 1.4318409,-0.57503 6.3500002,-0.58453 5.085073,-0.01 5.369139,-0.0383 7.2760409,-0.73078 3.453693,-1.2541 6.089026,-3.37188 8.290863,-6.66261 0.896709,-1.34017 0.885079,-1.58572 -0.09432,-1.9914 -0.439609,-0.18209 -2.210063,-1.25373 -3.934341,-2.38142 -5.8450999,-3.82273 -9.8396409,-8.43004 -9.1614519,-10.56682 0.09659,-0.30432 1.089604,-1.16573 2.206703,-1.91423 3.0099929,-2.01684 11.7994519,-8.1161 16.2352369,-11.26612 6.170705,-4.38204 7.897235,-6.14433 9.869184,-10.07357 1.009839,-2.01217 2.067145,-4.81513 1.885019,-4.99726 -0.253935,-0.25393 -21.833517,13.21052 -25.50843,15.91584 -1.0374639,0.76374 -1.9646109,1.78113 -2.8175209,3.09178 -2.22564,3.4201 -3.513935,4.42366 -5.258593,4.09636 -1.538687,-0.28866 -2.13977005,-1.2173 -2.25416005,-3.48255 l -0.09936,-1.96763 -0.8309768,-2.1e-4 c -1.94820305,-5.1e-4 -6.49169465,-1.22115 -8.02753555,-2.15665 -1.8140917,-1.10498 -2.4568107,-3.46075 -1.4117894,-5.17465 1.0076296,-1.65258 4.3121544,-2.70043 8.6083481,-2.72967 1.30968765,-0.009 2.8275877,-0.1755 3.3731107,-0.37018 0.980917,-0.35007 3.338965,-1.78847 5.870424,-3.58095 l 1.306035,-0.92478 -0.90916,-0.18817 c -0.500038,-0.10349 -2.456973,-0.48769 -4.348743,-0.85377 -7.6435668,-1.47913 -15.5156961,-4.60826 -16.9814181,-6.75004 -0.857174,-1.25253 -0.430059,-2.1031 2.54133,-5.06084 3.0171466,-3.00329 5.0605226,-4.49105 8.6192548,-6.27556 5.6845433,-2.850505 11.3827063,-4.235985 18.4652342,-4.489745 l 4.177735,-0.14969 -0.519921,-0.55744 c -0.611519,-0.65566 -1.764194,-2.89427 -2.021688,-3.92633 -0.107703,-0.43168 -0.569121,-0.96289 -1.145046,-1.31825 -1.955389,-1.20653 -6.122475,-4.75767 -7.7708149,-6.62221 -6.863796,-7.76404 -10.8977445,-16.65968 -12.0888954,-26.65837 -0.6871077,-5.76767 -0.4852019,-14.47762 0.374128,-16.13938 0.7090942,-1.37124 2.06945535,-1.40608 5.8255974,-0.14919 4.784826,1.6011 9.9128029,4.50746 14.2828359,8.09501 3.724895,3.05793 8.1195,8.09127 9.73415,11.14896 l 0.652475,1.2356 0.712229,-3.08769 c 1.892132,-8.20284 4.227821,-12.69725 8.87192,-17.07164 8.995797,-8.47337 25.96123,-11.39457 37.727723,-6.49617 2.522282,1.05003 5.378739,2.94476 7.116062,4.72018 1.129667,1.15444 1.61914,1.43629 3.480027,2.0039 5.68883,1.7352 10.46189,7.2459 11.88062,13.71669 0.69341,3.16261 0.4547,8.84251 -0.48749,11.59945 -0.82409,2.41138 -1.89318,4.2528 -3.7546,6.46702 l -1.36436,1.62294 -0.60009,3.93331 c -0.82881,5.43254 -1.43438,8.14999 -2.330353,10.45741 -3.139071,8.08411 -10.801693,12.849625 -20.867248,12.977675 -2.8379,0.0361 -3.662802,0.23261 -2.511005,0.59818 0.950762,0.30176 3.868663,2.3332 7.170145,4.99184 1.819011,1.46483 4.557448,3.66774 6.085417,4.89535 6.257558,5.0275 12.644394,8.61273 19.660414,11.03633 l 2.837409,0.98014 1.91411,-0.88591 c 1.73708,-0.80399 2.15713,-0.88908 4.54186,-0.92011 l 2.62776,-0.0342 1.131,-2.35462 c 0.62205,-1.29505 3.27932,-6.74732 5.90505,-12.11617 2.62573,-5.36885 4.77406,-9.783755 4.77406,-9.810895 0,-0.0272 -0.68461,0.0914 -1.52136,0.26343 -3.46841,0.713115 -3.96384,0.726925 -4.56349,0.12727 -0.38817,-0.38817 -0.50374,-0.73299 -0.38161,-1.13857 0.16012,-0.53171 2.10945,-4.04777 3.22049,-5.80887 0.45837,-0.72656 0.45363,-0.74191 -1.322,-4.28012 -0.98012,-1.95301 -1.78203,-3.77502 -1.78203,-4.0489 0,-0.27388 0.16688,-0.72618 0.37084,-1.00512 0.3644,-0.49834 0.42764,-0.49632 3.63802,0.11616 1.79695,0.34282 3.58179,0.67898 3.96632,0.74702 0.62159,0.10999 0.98224,-0.21635 3.25175,-2.94247 2.58069,-3.09991 3.2127,-3.55392 4.49814,-3.2313 0.80985,0.20326 0.83339,0.28896 1.35208,4.92286 0.23618,2.11005 0.5093,3.9203 0.60694,4.02278 0.0976,0.10248 1.3081,0.59879 2.68994,1.10292 3.99716,1.45828 4.49462,1.71327 4.77351,2.44681 0.49915,1.31288 -0.12789,1.93839 -3.87196,3.86248 l -3.45922,1.7777 -0.46361,3.778555 c -0.48962,3.99044 -0.77901,4.70459 -1.90643,4.70459 -0.66767,0 -1.69582,-0.79502 -4.34371,-3.3588 l -1.72969,-1.674735 -2.08263,4.170415 c -1.14544,2.29373 -3.85193,7.84657 -6.01442,12.33964 -3.64971,7.58314 -3.89821,8.19471 -3.46373,8.5244 0.25744,0.19534 0.56284,0.35896 0.67868,0.36358 0.11583,0.005 0.50162,0.6335 0.85731,1.39748 1.23047,2.64296 0.6584,6.64013 -1.26363,8.8292 -1.42214,1.61973 -2.88501,2.28133 -5.43372,2.45749 l -2.26496,0.15654 -2.79968,5.48597 c -1.70091,3.33293 -2.98648,5.54812 -3.27566,5.64434 -0.709509,0.23607 -1.772979,-0.57345 -1.772979,-1.34961 0,-0.36198 1.07156,-2.79876 2.381249,-5.41508 1.30969,-2.61631 2.38125,-4.87724 2.38125,-5.02429 0,-0.14706 -0.31309,-0.26737 -0.69575,-0.26737 -2.09786,0 -13.209059,-3.02395 -18.025806,-4.90578 -3.72948,-1.45705 -9.397604,-4.32392 -13.02844,-6.58963 -1.527969,-0.95347 -2.839143,-1.73363 -2.913721,-1.73368 -0.07458,-4e-5 -0.359397,0.80359 -0.632931,1.78586 -0.273534,0.98226 -1.300166,3.92906 -2.281404,6.54844 -3.164395,8.44721 -2.871233,6.52964 -3.701171,24.20937 -0.482645,10.28154 -0.876341,12.51249 -2.269794,12.86223 -0.396766,0.0996 -2.541486,0.10997 -4.766045,0.0231 l -4.044652,-0.15796 -0.517023,1.37538 c -2.36725,6.29734 -6.397232,12.64937 -10.873639,17.13895 -2.950845,2.95952 -6.018482,5.18222 -9.843903,7.13254 l -3.095468,1.57817 -2.546945,5.01492 c -1.629835,3.20914 -2.835137,5.25743 -3.347298,5.68838 -1.005317,0.84592 -2.231381,0.8737 -3.432605,0.0778 z m 4.290853,-7.1378 c 1.253703,-2.43442 2.591668,-4.83554 2.973255,-5.33583 0.488881,-0.64095 1.505938,-1.29756 3.443521,-2.22313 1.512348,-0.72243 3.448601,-1.79151 4.302785,-2.37573 6.01065,-4.11099 11.28626,-10.94754 14.826207,-19.21295 0.491943,-1.14863 0.861891,-2.11549 0.822106,-2.14857 -0.03978,-0.0331 -1.725707,-0.38233 -3.746495,-0.77613 -2.020787,-0.39379 -3.949029,-0.82049 -4.284981,-0.94822 -0.560153,-0.21297 -0.652938,-0.11801 -1.118541,1.14476 -0.279246,0.75736 -0.71934,2.03185 -0.977987,2.83221 -1.355682,4.19506 -4.690731,9.73276 -7.748302,12.86571 -2.31246,2.36948 -4.499906,3.86141 -7.571308,5.16395 -1.323283,0.56119 -2.67168,1.32211 -2.996437,1.69092 -0.324757,0.36882 -0.860539,1.52968 -1.190625,2.57969 -0.508453,1.61739 -0.600158,2.49533 -0.600158,5.74557 0,4.08662 0.33116,5.65521 1.16165,5.50234 0.250389,-0.0461 1.365045,-1.9021 2.70531,-4.50459 z M -2.9228828,181.4558 c 2.68554385,-1.81891 5.1546339,-3.36204 5.4868659,-3.42918 0.332233,-0.0671 2.754855,-0.24661 5.383604,-0.39883 5.6325459,-0.32618 9.5479919,-1.1862 13.2071379,-2.90093 2.716347,-1.27293 4.385827,-2.44007 6.84508,-4.78546 1.598412,-1.5244 4.404694,-4.77248 4.404694,-5.09813 0,-0.0655 -0.506015,-0.26837 -1.124479,-0.45088 -0.618463,-0.18251 -2.754523,-0.97526 -4.746799,-1.76167 -1.992276,-0.78641 -3.680178,-1.42984 -3.750894,-1.42984 -0.07072,0 -0.491535,0.63439 -0.935153,1.40975 -1.092862,1.91013 -3.736733,4.74531 -5.613743,6.01997 -0.848491,0.57619 -2.408907,1.39241 -3.467591,1.81381 -3.0237269,1.20357 -4.7681239,1.43995 -9.3156719,1.26235 -3.69687805,-0.14438 -4.09778415,-0.11464 -4.8817551,0.36212 -2.0567579,1.25079 -5.2744205,5.4604 -6.3948332,8.36624 -0.3256371,0.84455 -0.6499051,2.23891 -0.7205956,3.09857 -0.1127427,1.37106 -0.075112,1.54253 0.306399,1.39613 0.2392099,-0.0918 2.6321902,-1.6551 5.317734,-3.47402 z M 58.716792,165.89724 c 0.12096,-0.55983 0.526015,-4.72174 0.804701,-8.26823 0.06861,-0.87313 0.193209,-4.02828 0.276886,-7.01146 0.192396,-6.85917 0.533008,-10.88051 1.076647,-12.71114 0.234778,-0.79059 1.242513,-3.54526 2.239413,-6.1215 2.786115,-7.20004 4.297413,-13.77823 4.660442,-20.28539 l 0.167501,-3.0024 -0.982625,-0.9002 c -0.540444,-0.49511 -1.022011,-0.9002 -1.07015,-0.9002 -0.04814,0 -0.166563,0.52705 -0.263164,1.17124 -0.220303,1.46908 -1.030671,2.68747 -2.451777,3.68626 -1.500209,1.05439 -4.202489,1.25201 -6.625789,0.48455 -3.586589,-1.13588 -8.112598,-4.87363 -10.0932,-8.33537 -0.473466,-0.82753 -0.92318,-1.5046 -0.999365,-1.5046 -0.07618,0 -1.942681,0.54501 -4.147769,1.21113 -4.184308,1.26401 -6.747959,2.47364 -10.756127,5.07515 -2.449234,1.58968 -8.189808,5.86097 -12.170833,9.05574 -5.324039,4.27254 -12.7769519,9.50267 -14.8758599,10.43922 -1.063754,0.47466 -2.08871,0.66356 -4.30643025,0.79369 -6.57599415,0.38584 -8.39189435,1.2863 -5.35781225,2.65678 0.7639844,0.34509 2.4606249,0.82474 3.7703124,1.0659 1.3096874,0.24116 3.00669705,0.55606 3.7711341,0.69977 1.718096,0.32302 1.938765,0.68943 1.88848,3.13578 -0.02115,1.02904 0.02045,1.92988 0.09244,2.00188 0.07199,0.072 0.850602,-0.91496 1.73024,-2.19322 2.09759,-3.04815 2.882513,-3.75891 7.5989559,-6.88099 5.602696,-3.70874 27.6927,-17.26463 28.869377,-17.71617 0.476529,-0.18286 1.689996,0.89409 1.689996,1.49987 0,0.48866 -0.970884,1.4392 -2.45116,2.39979 -0.731282,0.47455 -1.06909,0.92755 -1.271169,1.70464 -0.93896,3.61072 -2.973138,8.5533 -4.322732,10.50325 -1.810839,2.61637 -8.143613,7.51238 -21.702355,16.77858 -2.31832,1.58437 -4.2583399,3.01549 -4.3111559,3.18028 -0.169254,0.52808 4.2103079,4.68328 6.7652779,6.4187 2.476603,1.68219 9.396909,5.16027 12.873503,6.47011 4.683642,1.7646 13.022018,4.11342 17.197916,4.84445 3.281609,0.57448 8.06233,1.08359 10.512146,1.11946 1.918173,0.0281 2.053486,-0.007 2.174105,-0.56535 z m 52.533538,-31.6508 c 2.13153,-1.54225 3.01037,-5.22767 1.55967,-6.54053 -0.27752,-0.25115 -0.54991,-0.40777 -0.6053,-0.34802 -0.14169,0.15282 -3.86479,7.61857 -3.86479,7.74988 0,0.25701 2.30936,-0.42644 2.91042,-0.86133 z m -4.09835,-3.33695 c 1.10941,-2.10818 1.93414,-3.96731 1.83273,-4.1314 -0.33135,-0.53614 -2.64152,-0.0888 -4.77602,0.92492 -1.99907,0.94935 -2.10661,0.97034 -3.39195,0.66199 -3.779289,-0.90664 -12.413098,-4.90401 -16.952776,-7.84897 -2.491673,-1.61639 -6.85772,-4.93729 -10.760911,-8.18495 -2.639198,-2.19595 -2.412516,-2.3279 -2.739397,1.59463 -0.09486,1.13828 -0.328977,3.04328 -0.520265,4.23333 -0.232911,1.449 -0.260613,2.26965 -0.08386,2.48441 0.376432,0.45738 3.799031,2.62252 7.425047,4.69709 6.182099,3.53699 13.547843,6.19947 23.085552,8.34469 2.47385,0.55642 4.58045,1.02194 4.68133,1.0345 0.10088,0.0126 1.09112,-1.70206 2.20053,-3.81024 z M 19.54544,112.94123 c 6.254149,-4.71478 9.733226,-7.14353 12.02499,-8.39466 0.632668,-0.34539 1.152098,-0.74704 1.15429,-0.89256 0.0058,-0.3831 -3.380411,-2.15742 -4.515354,-2.366 -7.355592,-1.351785 -15.010254,-1.24871 -21.1971299,0.28542 -1.911384,0.47396 -6.17886905,2.11049 -8.2975498,3.18202 -2.0623494,1.04304 -4.3259063,2.62739 -6.4672705,4.5267 -2.8117668,2.49393 -2.8110748,2.48918 -0.5210747,3.57616 4.27314,2.02828 9.626977,3.59199 15.939618,4.6555 3.1968379,0.53858 4.6432409,0.68212 5.0003139,0.49621 0.276319,-0.14386 3.371944,-2.42482 6.879167,-5.06879 z m 41.625026,-3.61267 c 1.248147,-0.4351 1.76855,-1.66682 1.598626,-3.78371 -0.198756,-2.47608 -0.517307,-2.8445 -3.106347,-3.59261 -2.50683,-0.72436 -5.234506,-1.977725 -7.327414,-3.366915 -1.182191,-0.78469 -1.503898,-0.89776 -1.695088,-0.59575 -0.129786,0.20502 -0.237798,0.44664 -0.240027,0.53694 -0.0022,0.0903 -0.480195,0.62608 -1.062149,1.19062 -0.581955,0.564555 -1.058205,1.147105 -1.058334,1.294575 -4.83e-4,0.55168 1.9124,3.07928 3.5074,4.63452 1.123492,1.09548 2.400742,1.9864 3.993739,2.78573 2.462002,1.23539 3.785953,1.45564 5.389594,0.8966 z m -20.808208,-8.6981 c 3.796133,-1.066205 5.213322,-1.717875 6.548533,-3.011245 1.840071,-1.78241 1.848337,-1.85781 0.379841,-3.46458 -1.7962,-1.96532 -3.666728,-4.77534 -4.422922,-6.64435 l -0.640618,-1.58336 -1.646767,-0.33558 c -0.905722,-0.18457 -2.040797,-0.57911 -2.52239,-0.87675 -1.38069,-0.85331 -2.878781,-2.73874 -3.359995,-4.22873 -0.54837,-1.69793 -0.572096,-4.83749 -0.04779,-6.32354 1.278267,-3.62299 5.261598,-5.47129 8.562906,-3.97324 0.633198,0.28732 1.273664,0.44677 1.423257,0.35431 0.149594,-0.0925 0.675538,-1.04153 1.168766,-2.10905 0.493227,-1.06753 1.129833,-2.06569 1.414679,-2.21813 0.284847,-0.15245 2.218663,-0.38497 4.297369,-0.51671 12.508711,-0.79279 20.429581,-4.43049 26.438386,-12.14198 1.684311,-2.16158 1.993143,-2.42331 2.859429,-2.42331 1.009677,0 1.542907,0.46742 4.917156,4.3103 5.171463,5.88969 6.464523,8.31154 6.951523,13.01991 l 0.21893,2.11666 0.83059,-1.71979 c 1.28821,-2.66734 1.74314,-4.76713 1.74834,-8.06979 0.007,-4.45768 -1.16039,-7.90718 -3.77045,-11.14108 -1.98856,-2.46385 -4.320973,-3.85852 -8.109663,-4.84917 -0.74583,-0.19502 -1.65127,-0.84386 -3.066396,-2.19741 -3.176493,-3.03826 -6.129308,-4.56074 -10.811183,-5.57427 -3.393674,-0.73466 -11.451924,-0.79397 -14.787927,-0.10884 -8.554623,1.7569 -15.069208,5.82832 -19.027271,11.89147 -1.94674,2.9821 -2.833572,5.36499 -4.592817,12.34074 -1.808282,7.17018 -2.80311,9.94133 -4.904406,13.66148 -4.010049,7.09941 -4.599692,8.28683 -5.114429,10.29943 -0.640382,2.50387 -0.671291,4.00877 -0.125603,6.11529 0.947871,3.65906 3.369789,5.38312 6.102529,4.34414 1.293447,-0.49177 2.137899,-0.0813 3.27385,1.5915 1.124293,1.6556 2.717092,3.151905 4.060362,3.814375 1.230367,0.60679 2.660879,0.5201 5.754181,-0.3487 z m 90.586602,-2.595035 c 0.34075,-3.84096 0.29559,-3.77154 3.38391,-5.20227 l 2.71443,-1.25752 -2.11667,-0.72292 c -3.63767,-1.24239 -3.69538,-1.30482 -4.10997,-4.44599 -0.15007,-1.13702 -0.34336,-2.41922 -0.42952,-2.84935 l -0.15667,-0.78204 -0.65795,0.78204 c -0.36187,0.43013 -1.30251,1.46665 -2.0903,2.3034 -1.62938,1.73063 -1.77864,1.7636 -4.9832,1.10088 -1.11825,-0.23125 -2.09301,-0.36064 -2.16613,-0.28752 -0.0731,0.0731 0.41236,1.16673 1.07884,2.43024 0.66648,1.26352 1.21178,2.61623 1.21178,3.00603 0,0.38979 -0.52341,1.59875 -1.16313,2.68657 -0.63972,1.08782 -1.12206,2.02138 -1.07187,2.07457 0.0502,0.0532 1.22205,-0.11626 2.60412,-0.37657 l 2.51284,-0.47328 1.00642,0.69774 c 0.55352,0.38376 1.65176,1.35139 2.44051,2.15029 0.78876,0.7989 1.51875,1.400235 1.6222,1.336295 0.10346,-0.0639 0.27012,-1.040705 0.37036,-2.170595 z m -56.808327,1.40148 c 3.577611,-0.87952 7.26979,-3.04802 9.581108,-5.6272 2.682438,-2.99331 4.009321,-6.71303 5.035643,-14.11672 0.291265,-2.10113 0.646929,-4.59414 0.790364,-5.54002 0.385903,-2.54482 0.326143,-6.02879 -0.133696,-7.79422 -0.657504,-2.52432 -1.830376,-4.37032 -5.218602,-8.2136 l -3.198319,-3.62787 -0.926387,1.15274 c -2.770755,3.44776 -7.229317,7.1232 -10.843691,8.93906 -4.649091,2.3357 -11.414598,3.88737 -17.507872,4.01544 -1.236927,0.026 -2.398038,0.10274 -2.580248,0.17055 -0.18221,0.0678 -0.764224,0.94715 -1.293366,1.95411 -1.042291,1.98348 -2.181407,3.1392 -3.094103,3.1392 -0.317415,0 -1.136263,-0.29765 -1.819664,-0.66145 -1.502533,-0.79986 -2.692717,-0.83865 -3.861855,-0.12584 -2.537084,1.54682 -2.529751,6.9596 0.01188,8.7694 0.577017,0.41087 1.367219,0.62296 2.739091,0.73517 1.060463,0.0867 1.981343,0.21467 2.046399,0.28428 0.06506,0.0696 0.491971,1.02946 0.948699,2.13299 1.531874,3.70126 4.561006,7.69915 7.517833,9.92212 2.879595,2.16492 7.600939,4.23706 11.070369,4.85867 1.980165,0.354775 8.740791,0.1238 10.736417,-0.36681 z m -1.081487,-13.33238 c -0.716291,-0.79149 -0.558951,-1.8529 0.351725,-2.37272 0.434285,-0.2479 0.845314,-0.59446 0.913399,-0.77014 0.06808,-0.17568 -0.287239,-0.91695 -0.789608,-1.64727 -1.043307,-1.5167 -1.105684,-1.87832 -0.429544,-2.49022 0.635214,-0.57486 1.310643,-0.55168 2.347571,0.0806 1.038549,0.63324 1.647693,1.75815 1.842432,3.40242 0.210118,1.77412 -0.379837,3.04618 -1.732887,3.73646 -1.31682,0.67179 -1.936592,0.68687 -2.503088,0.0609 z m 8.80049,-7.68288 c -0.841485,-0.68139 -1.026695,-3.43261 -0.322988,-4.79785 0.784938,-1.52284 2.8775,-1.46316 3.620816,0.10327 1.4615,3.07988 -0.987163,6.56565 -3.297828,4.69458 z m -20.860967,-1.07461 c -1.069751,-1.06975 -0.91444,-4.41537 0.259468,-5.58928 0.913574,-0.91357 2.419513,-0.63501 3.038538,0.56205 0.761876,1.4733 0.186208,4.67225 -0.95025,5.28046 -0.765952,0.40992 -1.795666,0.29886 -2.347756,-0.25323 z m -32.56282,21.27988 c 0,-0.21828 -0.231098,-0.39687 -0.513551,-0.39687 -0.750101,0 -0.91961,0.47165 -0.217977,0.60651 0.32958,0.0633 0.629002,0.13139 0.665383,0.15121 0.03638,0.0198 0.06614,-0.14256 0.06614,-0.36085 z M 17.693362,87.315985 c 0.04891,-0.1819 0.352078,-1.40229 0.673714,-2.71198 0.584777,-2.38118 1.537274,-4.39278 4.948586,-10.45104 1.849852,-3.28521 3.158815,-6.16037 3.407069,-7.48368 0.156822,-0.83593 0.01475,-1.22436 -1.152496,-3.15104 -5.324049,-8.78796 -13.906105,-15.75454 -23.2902029,-18.90609 -1.070489,-0.35951 -2.02298905,-0.57724 -2.11666705,-0.48385 -0.313899,0.31295 -0.354722,8.95691 -0.0562,11.9007 0.364581,3.59524 1.18416105,7.78114 2.04211305,10.42981 1.541299,4.75829 5.173434,11.14565 8.5785789,15.08601 1.654919,1.91504 6.22451,6.10189 6.659691,6.10189 0.119293,0 0.256911,-0.14883 0.305818,-0.33073 z m 91.349018,75.517705 c -0.60536,-0.66891 -0.62422,-4.68862 -0.026,-5.54269 0.3725,-0.53181 0.63422,-0.58804 2.73712,-0.58804 3.05078,0 3.201,0.15308 3.201,3.26198 0,3.10421 -0.242,3.35261 -3.26628,3.35261 -1.80301,0 -2.28826,-0.0887 -2.64583,-0.48386 z m 3.53086,-2.82343 c 0,-0.85123 -0.0637,-0.92605 -0.78871,-0.92605 -0.61573,0 -0.82429,0.14177 -0.95095,0.64643 -0.22076,0.87959 0.0393,1.20566 0.96153,1.20566 0.71291,0 0.77813,-0.0776 0.77813,-0.92604 z m 6.87917,-11.04353 c -0.6272,-0.32982 -0.66538,-0.48104 -0.73718,-2.91989 -0.10549,-3.58314 -0.0675,-3.63138 2.86315,-3.63138 2.05443,0 2.44609,0.0742 2.92581,0.55387 0.49846,0.49846 0.54478,0.80154 0.46302,3.02992 -0.0574,1.56333 -0.21711,2.60216 -0.43338,2.81815 -0.48499,0.48436 -4.23476,0.59456 -5.08142,0.14933 z m 3.175,-3.08165 c 0,-0.64662 -0.12193,-0.78162 -0.79526,-0.88044 -0.96382,-0.14146 -1.05682,-0.0627 -1.05682,0.89451 0,0.68035 0.0856,0.74965 0.92604,0.74965 0.84445,0 0.92604,-0.0673 0.92604,-0.76372 z m 18.26556,-6.62722 c -0.15064,-0.28148 -0.2739,-1.10641 -0.2739,-1.83319 0,-1.78033 0.41282,-2.15296 2.38515,-2.15296 1.88176,0 2.37735,0.50475 2.37735,2.42123 0,1.72761 -0.42412,2.07669 -2.52313,2.07669 -1.40163,0 -1.73853,-0.0877 -1.96547,-0.51177 z m -13.09118,-10.92418 c -0.30461,-0.43489 -0.41188,-1.26182 -0.41188,-3.175 0,-3.49285 0.14875,-3.6453 3.55687,-3.6453 3.23345,0 3.3223,0.10367 3.3223,3.87643 0,3.51944 -0.0122,3.5319 -3.44348,3.5319 -2.39916,0 -2.64549,-0.0479 -3.02381,-0.58803 z m 4.08604,-2.98384 c 0,-0.90399 -0.0252,-0.92604 -1.05834,-0.92604 -0.9857,0 -1.05833,0.0514 -1.05833,0.74965 0,0.96004 0.15948,1.10243 1.23472,1.10243 0.83155,0 0.88195,-0.0529 0.88195,-0.92604 z m 13.49374,-2.51354 c -0.74769,-0.7477 -0.73068,-2.7089 0.0301,-3.46968 0.48198,-0.48198 0.74704,-0.53457 1.91823,-0.38056 0.74743,0.0983 1.47803,0.29638 1.62355,0.4402 0.14552,0.14382 0.26458,0.91999 0.26458,1.7248 0,1.14315 -0.11237,1.54548 -0.51359,1.83886 -0.77951,0.56999 -2.68746,0.48178 -3.32287,-0.15362 z m -8.58395,-8.52554 c -0.46661,-0.66617 -0.58762,-5.0744 -0.15795,-5.75379 0.26462,-0.41841 4.39534,-0.88641 5.4981,-0.62291 0.80473,0.19228 1.20631,1.77972 1.0805,4.27121 -0.12844,2.54349 -0.32679,2.69353 -3.5608,2.69353 -2.22973,0 -2.48469,-0.0524 -2.85985,-0.58804 z m 4.08604,-2.56532 c 0,-1.01188 -0.3016,-1.34456 -1.21893,-1.34456 -0.8496,0 -0.89774,0.0497 -0.89774,0.92604 0,0.904 0.0252,0.92605 1.05833,0.92605 0.86691,0 1.05834,-0.0918 1.05834,-0.50753 z"
       id="path1"
       sodipodi:nodetypes="csscsscssssccccssscsssscsssccsscccsssscsssssscsssccccccccccccccccccccccccccccccccccccccccccssccccccccccccsscsscsccccssssccccccccccsssscssssccccssscsscssscssssssscssssccsssssssssssscssscsscsssssscssssssssscsssssssscssssssscsscssssssssssssssssssscssscssscssscsssssssssssssscssscssssssssssssssssssssssssssssssssssssssssssssscsssssssssssssssssssssssssssssssssssssscssssssssssssssssssssssssssssssssssssscssssscsscsssscsssssssssssssssssscssscssssssssscsssssssssscssssssssscsssssssssssssssssssssssssscsssssssssssssssssssssssssssssssssssssssssssssssssssssssssssssssssssssssssss" /></g></svg>
